<?xml version="1.0" standalone="no"?>
<!DOCTYPE svg PUBLIC "-//W3C//DTD SVG 20010904//EN"
 "http://www.w3.org/TR/2001/REC-SVG-20010904/DTD/svg10.dtd">
<svg version="1.0" xmlns="http://www.w3.org/2000/svg"
 width="500.000000pt" height="500.000000pt" viewBox="0 0 500.000000 500.000000"
 preserveAspectRatio="xMidYMid meet">

<g transform="translate(0.000000,500.000000) scale(0.100000,-0.100000)"
fill="#42b72a" stroke="none">
<path d="M3469 2917 c-108 -30 -154 -97 -154 -222 0 -93 22 -145 79 -188 76
-59 210 -57 286 3 119 94 102 320 -30 386 -58 29 -123 37 -181 21z m115 -149
c10 -14 16 -44 16 -76 0 -43 -5 -58 -25 -77 -30 -31 -47 -31 -81 -2 -23 20
-27 31 -27 80 0 69 20 97 69 97 23 0 38 -7 48 -22z"/>
<path d="M520 2690 l0 -220 80 0 80 0 0 85 0 85 35 0 35 0 0 -85 0 -85 75 0
75 0 0 220 0 220 -75 0 -75 0 0 -75 0 -75 -35 0 -35 0 0 75 0 75 -80 0 -80 0
0 -220z"/>
<path d="M950 2690 l0 -220 75 0 75 0 0 76 c0 65 2 75 17 72 11 -2 21 -21 30
-58 18 -70 41 -90 105 -90 60 0 88 14 88 43 0 27 -10 41 -32 50 -10 4 -18 17
-18 30 0 13 -6 32 -14 42 -12 16 -11 22 10 44 61 66 33 182 -52 217 -22 9 -75
14 -159 14 l-125 0 0 -220z m199 106 c7 -8 11 -27 9 -43 -2 -22 -9 -29 -30
-31 -27 -3 -28 -2 -28 42 0 38 3 46 19 46 10 0 24 -6 30 -14z"/>
<path d="M1450 2690 l0 -220 70 0 70 0 0 132 0 133 38 -80 c21 -44 49 -104 62
-132 l25 -53 92 0 93 0 0 220 0 220 -70 0 -70 0 0 -126 c0 -69 -4 -123 -8
-120 -4 2 -33 59 -63 125 l-54 121 -92 0 -93 0 0 -220z"/>
<path d="M1940 2690 l0 -220 135 0 135 0 0 60 0 60 -60 0 -60 0 0 30 c0 29 2
30 45 30 l45 0 0 50 0 50 -45 0 c-38 0 -45 3 -45 20 0 16 8 19 58 22 57 3 57
3 60 37 2 19 1 44 -2 57 -6 24 -8 24 -136 24 l-130 0 0 -220z"/>
<path d="M2232 2848 l3 -63 48 -3 47 -3 0 -155 0 -154 75 0 75 0 0 155 0 155
50 0 50 0 0 65 0 65 -175 0 -176 0 3 -62z"/>
<path d="M2600 2891 c0 -11 4 -30 9 -44 5 -13 23 -86 40 -163 18 -76 36 -156
42 -176 l10 -38 93 0 93 0 23 123 c29 158 36 175 45 122 4 -22 15 -83 26 -137
10 -53 19 -99 19 -102 0 -3 43 -6 95 -6 l94 0 9 38 c58 243 92 389 92 395 0 4
-33 7 -74 7 -87 0 -77 14 -102 -148 -10 -62 -21 -107 -25 -100 -3 7 -17 66
-30 131 l-23 117 -92 0 -91 0 -23 -117 c-31 -161 -36 -171 -45 -98 -4 33 -12
94 -19 135 l-12 75 -77 3 c-71 3 -77 1 -77 -17z"/>
<path d="M3790 2690 l0 -220 80 0 80 0 0 75 c0 60 3 75 15 75 13 0 17 -10 30
-76 3 -11 14 -33 26 -48 21 -26 26 -28 86 -24 34 2 68 9 74 15 16 16 1 70 -20
76 -12 3 -21 18 -25 41 -4 20 -13 39 -20 42 -9 4 -4 14 16 35 29 28 30 33 26
96 -4 60 -7 69 -37 93 -42 35 -67 40 -212 40 l-119 0 0 -220z m201 110 c34
-19 21 -80 -17 -80 -22 0 -24 4 -24 45 0 46 7 53 41 35z"/>
<path d="M4220 2690 l0 -220 75 0 75 0 0 63 c0 35 6 69 14 79 11 16 16 9 42
-60 l29 -77 88 -3 c48 -1 87 -1 87 1 0 2 -27 64 -60 136 -33 73 -60 136 -60
141 0 4 17 30 38 57 21 26 46 60 56 76 l18 27 -85 0 -86 0 -38 -62 -38 -62 -3
62 -3 62 -74 0 -75 0 0 -220z"/>
</g>
</svg>
